#!OML:ASF E:\Style4\Style4.ASF
:FULLY-SPECIFIED
:DEGREES
2213
root 0.0552872 18.1442 -0.122796 3.03258 -5.06421 4.0444
lowerback 1.5581 2.47872 -2.24343
upperback -2.22175 3.20019 -1.39024
thorax -3.20039 1.63095 -0.31402
lowerneck 0.648276 -3.38705 -6.1322
upperneck 8.77601 -4.71554 3.91286
head 2.98835 -2.42928 2.23632
rclavicle -1.19644e-014 -1.14301e-014
rhumerus -85.8092 51.6045 -120.903
rradius 85.3451
rwrist -4.57347
rhand -3.77882 30.7179
rfingers 7.12502
rthumb 21.9663 1.94517
lclavicle -1.19644e-014 -1.14301e-014
lhumerus -80.1357 -54.3393 112.103
lradius 85.7298
lwrist -24.1386
lhand -24.8155 -3.26437
lfingers 7.12502
lthumb 1.68973 26.7087
rfemur -5.30499 8.5015 14.0003
rtibia 18.7281
rfoot -15.4136 -14.5224
rtoes -12.9636
lfemur 6.52231 -2.81584 -24.1236
ltibia 1.43125e-014
lfoot -10.4648 15.1248
ltoes -15.0256
2214
root 0.0562083 18.1439 -0.121632 3.02877 -5.08764 4.07316
lowerback 1.57599 2.50435 -2.26817
upperback -2.24823 3.23173 -1.4149
thorax -3.23829 1.64725 -0.328785
lowerneck 0.680559 -3.41165 -6.14542
upperneck 8.78398 -4.7548 3.96982
head 2.98999 -2.44802 2.25727
rclavicle 4.12168e-014 -2.08724e-015
rhumerus -85.7999 51.5155 -120.869
rradius 85.3348
rwrist -4.54339
rhand -3.87004 30.7556
rfingers 7.12502
rthumb 21.8788 1.9726
lclavicle 4.12168e-014 -2.08724e-015
lhumerus -80.2472 -54.4343 112.208
lradius 85.7412
lwrist -24.1729
lhand -24.8516 -3.27186
lfingers 7.12502
lthumb 1.65486 26.7015
rfemur -5.30169 8.51163 13.9657
rtibia 18.7169
rfoot -15.3734 -14.5825
rtoes -13.2513
lfemur 6.53459 -2.79376 -24.1612
ltibia -1.90833e-014
lfoot -10.4133 15.0803
ltoes -14.9191
2215
root 0.0580311 18.1445 -0.119457 3.04931 -5.1123 4.04196
lowerback 1.54281 2.51329 -2.24187
upperback -2.26056 3.24547 -1.41028
thorax -3.23124 1.65359 -0.338042
lowerneck 0.647979 -3.42312 -6.15387
upperneck 8.81472 -4.77066 3.99278
head 3.00866 -2.45542 2.26571
rclavicle -1.68819e-014 5.26779e-015
rhumerus -85.7469 51.4621 -120.808
rradius 85.3313
rwrist -4.50062
rhand -3.93321 30.7218
rfingers 7.12502
rthumb 21.8181 1.9317
lclavicle -1.68819e-014 5.26779e-015
lhumerus -80.2681 -54.4477 112.223
lradius 85.7351
lwrist -24.2448
lhand -24.8313 -3.31177
lfingers 7.12502
lthumb 1.67449 26.6614
rfemur -5.30448 8.50271 13.9906
rtibia 18.6932
rfoot -15.3537 -14.5881
rtoes -13.592
lfemur 6.53134 -2.76867 -24.1395
ltibia 1.43125e-014
lfoot -10.4296 15.0962
ltoes -14.9275
2216
root 0.0599695 18.1436 -0.118478 3.05687 -5.12262 4.01044
lowerback 1.54223 2.51929 -2.21657
upperback -2.26795 3.25437 -1.40214
thorax -3.23767 1.6576 -0.344366
lowerneck 0.569186 -3.44149 -6.13795
upperneck 8.86805 -4.79001 3.96317
head 3.04103 -2.4649 2.25119
rclavicle -3.8155e-014 3.08116e-015
rhumerus -85.7272 51.4392 -120.768
rradius 85.3438
rwrist -4.50727
rhand -3.99168 30.6782
rfingers 7.12502
rthumb 21.762 1.88162
lclavicle -3.8155e-014 3.08116e-015
lhumerus -80.299 -54.4747 112.255
lradius 85.7213
lwrist -24.4037
lhand -24.9133 -3.22052
lfingers 7.12502
lthumb 1.59528 26.7533
rfemur -5.29715 8.48376 14.0189
rtibia 18.6874
rfoot -15.3747 -14.5456
rtoes -13.6185
lfemur 6.52988 -2.75679 -24.1162
ltibia 1.27222e-014
lfoot -10.3533 15.0565
ltoes -14.7802
2217
root 0.0616837 18.1433 -0.116111 3.0574 -5.11156 3.9512
lowerback 1.52894 2.51407 -2.15175
upperback -2.26558 3.25031 -1.3887
thorax -3.2247 1.65416 -0.365631
lowerneck 0.507523 -3.45814 -6.14487
upperneck 8.90177 -4.81008 3.97083
head 3.06581 -2.47449 2.25364
rclavicle -1.64168e-014 9.64106e-015
rhumerus -85.698 51.4326 -120.739
rradius 85.3328
rwrist -4.5449
rhand -3.96525 30.7314
rfingers 7.12502
rthumb 21.7873 1.93776
lclavicle -1.64168e-014 9.64106e-015
lhumerus -80.3137 -54.5247 112.274
lradius 85.6774
lwrist -24.6939
lhand -25.063 -3.06818
lfingers 7.12502
lthumb 1.4507 26.9066
rfemur -5.2791 8.46524 14.084
rtibia 18.6827
rfoot -15.3443 -14.5555
rtoes -13.7176
lfemur 6.54094 -2.76439 -24.0575
ltibia -7.95139e-015
lfoot -10.3004 15.026
ltoes -14.6495
2218
root 0.0632322 18.1434 -0.113135 3.0767 -5.13639 4.00606
lowerback 1.47625 2.50617 -2.21509
upperback -2.27883 3.23899 -1.39617
thorax -3.21176 1.64996 -0.335432
lowerneck 0.459709 -3.45912 -6.15628
upperneck 8.97595 -4.80876 3.95452
head 3.09993 -2.47472 2.24967
rclavicle 1.61311e-014 -1.42131e-014
rhumerus -85.7331 51.4473 -120.761
rradius 85.3432
rwrist -4.55728
rhand -3.90922 30.7415
rfingers 7.12502
rthumb 21.8411 1.95403
lclavicle 1.61311e-014 -1.42131e-014
lhumerus -80.3253 -54.5187 112.291
lradius 85.6403
lwrist -24.7796
lhand -25.1075 -2.98144
lfingers 7.12502
lthumb 1.40777 26.9937
rfemur -5.29156 8.47717 14.0061
rtibia 18.6666
rfoot -15.3245 -14.5384
rtoes -13.5637
lfemur 6.5265 -2.74415 -24.1188
ltibia -1.59028e-014
lfoot -10.3641 15.0157
ltoes -14.602
2219
root 0.0650827 18.143 -0.110294 3.10738 -5.16675 4.00375
lowerback 1.42437 2.51169 -2.21534
upperback -2.29921 3.24772 -1.39154
thorax -3.20395 1.65449 -0.32903
lowerneck 0.455869 -3.46414 -6.18494
upperneck 9.0037 -4.81688 3.97469
head 3.11251 -2.47929 2.26148
rclavicle 6.67792e-017 1.87852e-014
rhumerus -85.7066 51.3967 -120.713
rradius 85.3438
rwrist -4.55767
rhand -3.82647 30.745
rfingers 7.12502
rthumb 21.9206 1.96689
lclavicle 6.67792e-017 1.87852e-014
lhumerus -80.3281 -54.5153 112.313
lradius 85.6213
lwrist -24.7164
lhand -25.0557 -2.95306
lfingers 7.12502
lthumb 1.4578 27.0217
rfemur -5.3138 8.48434 13.9934
rtibia 18.6482
rfoot -15.3005 -14.5254
rtoes -13.6846
lfemur 6.50916 -2.71599 -24.121
ltibia -2.54444e-014
lfoot -10.4334 14.9581
ltoes -14.0475
2220
root 0.0668951 18.1422 -0.10581 3.09404 -5.19609 3.94622
lowerback 1.40575 2.50906 -2.17129
upperback -2.30553 3.24679 -1.36365
thorax -3.19903 1.65335 -0.324131
lowerneck 0.44108 -3.45407 -6.14703
upperneck 9.03212 -4.7995 3.91812
head 3.12044 -2.47111 2.23574
rclavicle 1.24613e-014 -1.59028e-015
rhumerus -85.6834 51.3552 -120.661
rradius 85.3306
rwrist -4.54111
rhand -3.81114 30.7443
rfingers 7.12502
rthumb 21.9353 1.96792
lclavicle 1.24613e-014 -1.59028e-015
lhumerus -80.3198 -54.4746 112.32
lradius 85.6124
lwrist -24.6926
lhand -25.0761 -2.95643
lfingers 7.12502
lthumb 1.43807 27.0185
rfemur -5.28894 8.47117 14.0536
rtibia 18.65
rfoot -15.2433 -14.5312
rtoes -13.996
lfemur 6.54966 -2.68258 -24.068
ltibia 6.36111e-015
lfoot -10.473 15.002
ltoes -14.3337
2221
root 0.0675442 18.142 -0.103566 3.10028 -5.21432 3.94786
lowerback 1.39239 2.51341 -2.18769
upperback -2.32236 3.25215 -1.36409
thorax -3.20989 1.65655 -0.315612
lowerneck 0.480141 -3.45592 -6.0913
upperneck 8.99014 -4.80112 3.87397
head 3.09507 -2.47146 2.21103
rclavicle 2.20791e-014 1.09332e-015
rhumerus -85.6846 51.3191 -120.647
rradius 85.3364
rwrist -4.53286
rhand -3.88638 30.7128
rfingers 7.12502
rthumb 21.8631 1.92793
lclavicle 2.20791e-014 1.09332e-015
lhumerus -80.3079 -54.4646 112.305
lradius 85.5875
lwrist -24.7868
lhand -25.0957 -3.05473
lfingers 7.12502
lthumb 1.41917 26.9203
rfemur -5.29588 8.50603 14.0484
rtibia 18.6315
rfoot -15.2427 -14.5549
rtoes -13.8626
lfemur 6.5467 -2.6649 -24.073
ltibia 4.77083e-015
lfoot -10.485 15.0908
ltoes -15.1872
2222
root 0.068648 18.1415 -0.102332 3.11242 -5.23954 3.95298
lowerback 1.35354 2.50818 -2.2103
upperback -2.32356 3.24587 -1.35865
thorax -3.19075 1.65397 -0.295308
lowerneck 0.530135 -3.45527 -6.07639
upperneck 8.90141 -4.80086 3.86425
head 3.05438 -2.47104 2.20561
rclavicle 1.34801e-015 -7.25564e-015
rhumerus -85.7122 51.3717 -120.656
rradius 85.3622
rwrist -4.56268
rhand -3.9051 30.7437
rfingers 7.12502
rthumb 21.8451 1.95672
lclavicle 1.34801e-015 -7.25564e-015
lhumerus -80.2545 -54.4609 112.241
lradius 85.5771
lwrist -24.8857
lhand -25.1281 -3.04003
lfingers 7.12502
lthumb 1.38786 26.9352
rfemur -5.30768 8.57785 14.0395
rtibia 18.611
rfoot -15.2728 -14.5786
rtoes -13.8191
lfemur 6.52581 -2.64095 -24.0769
ltibia -1.59028e-015
lfoot -10.4736 15.0579
ltoes -15.1106
2223
root 0.0713164 18.1413 -0.0999764 3.08351 -5.22664 3.96077
lowerback 1.34733 2.4931 -2.21354
upperback -2.30801 3.22629 -1.35422
thorax -3.17135 1.64416 -0.2873
lowerneck 0.527229 -3.45861 -6.087
upperneck 8.84633 -4.80518 3.88061
head 3.0373 -2.4727 2.21287
rclavicle -1.98226e-014 1.44119e-014
rhumerus -85.6991 51.3894 -120.625
rradius 85.3541
rwrist -4.51346
rhand -3.79983 30.8109
rfingers 7.12502
rthumb 21.9462 2.03578
lclavicle -1.98226e-014 1.44119e-014
lhumerus -80.2135 -54.4698 112.224
lradius 85.5526
lwrist -24.8723
lhand -25.2012 -2.92163
lfingers 7.12502
lthumb 1.31724 27.0541
rfemur -5.28023 8.61542 14.0333
rtibia 18.6463
rfoot -15.346 -14.5959
rtoes -13.7227
lfemur 6.56214 -2.65192 -24.0945
ltibia 0
lfoot -10.4472 15.0042
ltoes -14.7963
2224
root 0.0744543 18.1409 -0.0981442 3.08256 -5.16347 3.96149
lowerback 1.33096 2.48451 -2.16925
upperback -2.312 3.21615 -1.36997
thorax -3.16266 1.63787 -0.326904
lowerneck 0.529825 -3.47091 -6.08425
upperneck 8.81883 -4.82243 3.89458
head 3.02883 -2.48063 2.21657
rclavicle -2.25015e-014 7.25564e-015
rhumerus -85.5899 51.2924 -120.509
rradius 85.3433
rwrist -4.47509
rhand -3.69291 30.7995
rfingers 7.12502
rthumb 22.0488 2.03648
lclavicle -2.25015e-014 7.25564e-015
lhumerus -80.2218 -54.5214 112.241
lradius 85.5336
lwrist -24.8201
lhand -25.2301 -2.98036
lfingers 7.12502
lthumb 1.28935 26.9955
rfemur -5.2853 8.56943 14.028
rtibia 18.691
rfoot -15.418 -14.5728
rtoes -13.5828
lfemur 6.56434 -2.71443 -24.1005
ltibia 9.54166e-015
lfoot -10.5097 15.0455
ltoes -14.8305
